<svg width="150" height="150" viewBox="0 0 150 150" fill="none" xmlns="http://www.w3.org/2000/svg">
  <rect width="150" height="150" fill="white"/>
  <rect x="10" y="10" width="130" height="30" fill="#1E3A8A"/>
  <rect x="10" y="45" width="130" height="6" fill="#EA580C"/>
  <path d="M75 65C93.7777 65 109 80.2223 109 99C109 117.778 93.7777 133 75 133C56.2223 133 41 117.778 41 99C41 80.2223 56.2223 65 75 65Z" fill="#1E3A8A"/>
  <path d="M75 76C87.7025 76 98 86.2975 98 99C98 111.703 87.7025 122 75 122C62.2975 122 52 111.703 52 99C52 86.2975 62.2975 76 75 76Z" fill="white"/>
  <path d="M75 85C82.732 85 89 91.268 89 99C89 106.732 82.732 113 75 113C67.268 113 61 106.732 61 99C61 91.268 67.268 85 75 85Z" fill="#EA580C"/>
</svg>